<svg width="44" height="43" viewBox="0 0 44 43" fill="none" xmlns="http://www.w3.org/2000/svg">
<rect y="7" width="36" height="36" fill="#EB9481"/>
<path d="M25.8977 20.554L21.679 21.0142C21.5597 20.5881 21.3509 20.1875 21.0526 19.8125C20.7628 19.4375 20.3707 19.1349 19.8764 18.9048C19.3821 18.6747 18.777 18.5597 18.0611 18.5597C17.098 18.5597 16.2884 18.7685 15.6321 19.1861C14.9844 19.6037 14.6648 20.1449 14.6733 20.8097C14.6648 21.3807 14.8736 21.8452 15.2997 22.2031C15.7344 22.5611 16.4503 22.8551 17.4474 23.0852L20.7969 23.8011C22.6548 24.2017 24.0355 24.8366 24.9389 25.706C25.8509 26.5753 26.3111 27.7131 26.3196 29.1193C26.3111 30.3551 25.9489 31.446 25.233 32.392C24.5256 33.3295 23.5412 34.0625 22.2798 34.5909C21.0185 35.1193 19.5696 35.3835 17.9332 35.3835C15.5298 35.3835 13.5952 34.8807 12.1293 33.875C10.6634 32.8608 9.78977 31.4503 9.50852 29.6435L14.0213 29.2088C14.2259 30.0952 14.6605 30.7642 15.3253 31.2159C15.9901 31.6676 16.8551 31.8935 17.9205 31.8935C19.0199 31.8935 19.902 31.6676 20.5668 31.2159C21.2401 30.7642 21.5767 30.206 21.5767 29.5412C21.5767 28.9787 21.3594 28.5142 20.9247 28.1477C20.4986 27.7812 19.8338 27.5 18.9304 27.304L15.581 26.6009C13.6974 26.2088 12.304 25.5483 11.4006 24.6193C10.4972 23.6818 10.0497 22.4972 10.0582 21.0653C10.0497 19.8551 10.3778 18.8068 11.0426 17.9205C11.7159 17.0256 12.6491 16.3352 13.8423 15.8494C15.044 15.3551 16.429 15.108 17.9972 15.108C20.2983 15.108 22.1094 15.598 23.4304 16.5781C24.7599 17.5582 25.5824 18.8835 25.8977 20.554Z" fill="white"/>
</svg>
